HIERARCHY
ROOT hip
{
  OFFSET 0 0 0
  CHANNELS 6 Xposition Yposition Zposition Zrotation Yrotation Xrotation
  JOINT abdomen
  {
    OFFSET 0 20.6881 -0.73152
    CHANNELS 3 Zrotation Xrotation Yrotation
    JOINT chest
    {
      OFFSET 0 11.7043 -0.48768
      CHANNELS 3 Zrotation Xrotation Yrotation
      JOINT neck
      {
        OFFSET 0 22.1894 -2.19456
        CHANNELS 3 Zrotation Xrotation Yrotation
        JOINT head
        {
          OFFSET -0.24384 7.07133 1.2192
          CHANNELS 3 Zrotation Xrotation Yrotation
          JOINT leftEye
          {
            OFFSET 4.14528 8.04674 8.04672
            CHANNELS 3 Zrotation Xrotation Yrotation
            End Site
            {
              OFFSET 1 0 0
            }
          }
          JOINT rightEye
          {
            OFFSET -3.6576 8.04674 8.04672
            CHANNELS 3 Zrotation Xrotation Yrotation
            End Site
            {
              OFFSET 1 0 0
            }
          }
        }
      }
      JOINT rCollar
      {
        OFFSET -2.68224 19.2634 -4.8768
        CHANNELS 3 Zrotation Xrotation Yrotation
        JOINT rShldr
        {
          OFFSET -8.77824 -1.95073 1.46304
          CHANNELS 3 Zrotation Xrotation Yrotation
          JOINT rForeArm
          {
            OFFSET -28.1742 -1.7115 0.48768
            CHANNELS 3 Zrotation Xrotation Yrotation
            JOINT rHand
            {
              OFFSET -22.5879 0.773209 7.07136
              CHANNELS 3 Zrotation Xrotation Yrotation
              JOINT rThumb1
              {
                OFFSET -1.2192 -0.487915 3.41376
                CHANNELS 3 Zrotation Xrotation Yrotation
                JOINT rThumb2
                {
                  OFFSET -3.37035 -0.52449 3.41376
                  CHANNELS 3 Zrotation Xrotation Yrotation
                  End Site
                  {
                    OFFSET -1.78271 -1.18214 1.43049
                  }
                }
              }
              JOINT rIndex1
              {
                OFFSET -7.75947 0.938293 5.60832
                CHANNELS 3 Zrotation Xrotation Yrotation
                JOINT rIndex2
                {
                  OFFSET -2.54057 -0.884171 1.56538
                  CHANNELS 3 Zrotation Xrotation Yrotation
                  End Site
                  {
                    OFFSET -1.62519 -0.234802 1.16502
                  }
                }
              }
              JOINT rMid1
              {
                OFFSET -8.24714 1.18213 3.41376
                CHANNELS 3 Zrotation Xrotation Yrotation
                JOINT rMid2
                {
                  OFFSET -3.10165 -0.590103 1.0647
                  CHANNELS 3 Zrotation Xrotation Yrotation
                  End Site
                  {
                    OFFSET -2.48547 -0.328903 0.83742
                  }
                }
              }
              JOINT rRing1
              {
                OFFSET -8.82822 0.546677 1.51678
                CHANNELS 3 Zrotation Xrotation Yrotation
                JOINT rRing2
                {
                  OFFSET -2.60934 -0.819778 -0.0198488
                  CHANNELS 3 Zrotation Xrotation Yrotation
                  End Site
                  {
                    OFFSET -2.33842 -0.294052 0.168128
                  }
                }
              }
              JOINT rPinky1
              {
                OFFSET -8.27202 -0.0477905 -0.4584
                CHANNELS 3 Zrotation Xrotation Yrotation
                JOINT rPinky2
                {
                  OFFSET -1.82734 -0.647385 -0.700984
                  CHANNELS 3 Zrotation Xrotation Yrotation
                  End Site
                  {
                    OFFSET -1.69225 -0.51767 -0.607171
                  }
                }
              }
            }
          }
        }
      }
      JOINT lCollar
      {
        OFFSET 2.68224 19.2634 -4.8768
        CHANNELS 3 Zrotation Xrotation Yrotation
        JOINT lShldr
        {
          OFFSET 8.77824 -1.95073 1.46304
          CHANNELS 3 Zrotation Xrotation Yrotation
          JOINT lForeArm
          {
            OFFSET 28.1742 -1.7115 0.48768
            CHANNELS 3 Zrotation Xrotation Yrotation
            JOINT lHand
            {
              OFFSET 22.5879 0.773209 7.07136
              CHANNELS 3 Zrotation Xrotation Yrotation
              JOINT lThumb1
              {
                OFFSET 1.2192 -0.487915 3.41376
                CHANNELS 3 Zrotation Xrotation Yrotation
                JOINT lThumb2
                {
                  OFFSET 3.37035 -0.52449 3.41376
                  CHANNELS 3 Zrotation Xrotation Yrotation
                  End Site
                  {
                    OFFSET 1.78271 -1.18214 1.43049
                  }
                }
              }
              JOINT lIndex1
              {
                OFFSET 7.75947 0.938293 5.60832
                CHANNELS 3 Zrotation Xrotation Yrotation
                JOINT lIndex2
                {
                  OFFSET 2.54057 -0.884171 1.56538
                  CHANNELS 3 Zrotation Xrotation Yrotation
                  End Site
                  {
                    OFFSET 1.62519 -0.234802 1.16502
                  }
                }
              }
              JOINT lMid1
              {
                OFFSET 8.24714 1.18213 3.41376
                CHANNELS 3 Zrotation Xrotation Yrotation
                JOINT lMid2
                {
                  OFFSET 3.10165 -0.590103 1.0647
                  CHANNELS 3 Zrotation Xrotation Yrotation
                  End Site
                  {
                    OFFSET 2.48547 -0.328903 0.83742
                  }
                }
              }
              JOINT lRing1
              {
                OFFSET 8.82822 0.546677 1.51678
                CHANNELS 3 Zrotation Xrotation Yrotation
                JOINT lRing2
                {
                  OFFSET 2.60934 -0.819778 -0.0198488
                  CHANNELS 3 Zrotation Xrotation Yrotation
                  End Site
                  {
                    OFFSET 2.33842 -0.294052 0.168128
                  }
                }
              }
              JOINT lPinky1
              {
                OFFSET 8.27202 -0.0477905 -0.4584
                CHANNELS 3 Zrotation Xrotation Yrotation
                JOINT lPinky2
                {
                  OFFSET 1.82734 -0.647385 -0.700984
                  CHANNELS 3 Zrotation Xrotation Yrotation
                  End Site
                  {
                    OFFSET 1.69225 -0.51767 -0.607171
                  }
                }
              }
            }
          }
        }
      }
    }
  }
  JOINT rButtock
  {
    OFFSET -8.77824 4.35084 1.2192
    CHANNELS 3 Zrotation Xrotation Yrotation
    JOINT rThigh
    {
      OFFSET 0 -1.70687 -2.19456
      CHANNELS 3 Zrotation Xrotation Yrotation
      JOINT rShin
      {
        OFFSET 0 -36.8199 0.73152
        CHANNELS 3 Zrotation Xrotation Yrotation
        JOINT rFoot
        {
          OFFSET 0.73152 -45.1104 -5.12064
          CHANNELS 3 Zrotation Xrotation Yrotation
          End Site
          {
            OFFSET -1.1221 -3.69964 12.103
          }
        }
      }
    }
  }
  JOINT lButtock
  {
    OFFSET 8.77824 4.35084 1.2192
    CHANNELS 3 Zrotation Xrotation Yrotation
    JOINT lThigh
    {
      OFFSET 0 -1.70687 -2.19456
      CHANNELS 3 Zrotation Xrotation Yrotation
      JOINT lShin
      {
        OFFSET 0 -36.8199 0.73152
        CHANNELS 3 Zrotation Xrotation Yrotation
        JOINT lFoot
        {
          OFFSET -0.73152 -45.1104 -5.12064
          CHANNELS 3 Zrotation Xrotation Yrotation
          End Site
          {
            OFFSET 1.1221 -3.69964 12.103
          }
        }
      }
    }
  }
}
MOTION
Frames:	6
Frame Time:	0.00833333
49.4571 -64.7831 73.7518 0.0 0.0 0.0 -0.112372 -0.00251944 -0.00326408 -0.0310694 -0.00419702 -0.00538321 -9.9983e-16 1.59028e-15 -4.65901e-18 -3.01904e-15 9.54166e-15 -2.32951e-17 -0.0 0.0 0.0 -0.0 0.0 0.0 -3.49207e-16 5.82377e-19 1.49089e-16 -9.17875e-15 1.80149e-16 5.96354e-16 -1.8154e-13 5.66536e-14 2.8625e-14 -2.05623e-12 -3.97818e-14 -5.725e-14 -4.85669e-12 3.6449e-14 -3.49861e-14 -8.39945e-12 6.04305e-14 -6.59965e-14 -4.85273e-12 3.73715e-14 -5.08889e-14 7.73091 5.47488 0.417314 -4.85725e-12 3.598e-14 -3.49861e-14 2.90554 0.965183 0.102902 -4.85241e-12 3.63776e-14 -3.65764e-14 10.2786 0.731801 0.0259123 -4.86347e-12 3.81667e-14 -2.54444e-14 2.22167 -0.733487 -0.20892 -6.4475e-16 7.76503e-19 -1.49089e-16 -1.14959e-14 4.72114e-16 -7.95139e-16 -1.78459e-13 -4.8901e-14 -2.54444e-14 -2.06142e-12 7.72527e-14 9.54166e-15 -4.85581e-12 5.74891e-14 -3.81667e-14 -8.36645e-12 9.54166e-14 -6.04305e-14 -4.86028e-12 5.76476e-14 -2.8625e-14 -7.73091 5.47488 -0.417314 -4.85581e-12 5.71506e-14 -4.13472e-14 -2.90554 0.965183 -0.102902 -4.85752e-12 5.74488e-14 -3.73715e-14 -10.2786 0.731801 -0.0259123 -4.85054e-12 5.88403e-14 -4.77083e-14 -2.22167 -0.733487 0.20892 -2.03217e-16 0.0 -3.88251e-19 0.354324 -2.94059 -0.0354149 -0.0058766 -0.224697 -0.0517327 -0.439154 3.16566 0.112986 2.03217e-16 0.0 3.88251e-19 -0.528379 -3.42443 0.0465251 0.00450337 0.651676 0.0390924 0.44372 2.77314 -0.105803
-30.34 10.5718 82.641 81.1783 5.9717 -148.976 -3.24904 -10.7692 -0.56493 -0.747109 -1.8921 -1.15126 1.82232 -0.228796 0.111875 -2.00744 7.78275 1.39833 -0.0 0.0 0.0 -0.0 0.0 0.0 1.67053e-14 9.89133e-15 -7.16157e-14 -22.0922 -9.07917 11.2051 -4.52428 -2.12023 6.99527 0.0726707 5.98646 0.824851 -7.57185e-10 1.21879e-09 -4.16563e-11 -1.30856e-09 2.11826e-09 -5.67889e-11 -7.57185e-10 1.21879e-09 -4.16757e-11 7.73091 5.47488 0.417314 -7.57186e-10 1.21879e-09 -4.16562e-11 2.90554 0.965183 0.102902 -7.57179e-10 1.21879e-09 -4.16573e-11 10.2786 0.731801 0.0259123 -7.57192e-10 1.21879e-09 -4.16477e-11 2.22167 -0.733487 -0.20892 1.65064e-14 9.88883e-15 -7.18412e-14 -20.7735 26.4573 -6.27843 18.6312 -16.2572 -15.1272 -0.00272512 1.15808 -0.162637 -4.40834e-10 -1.71319e-10 -2.62136e-10 -7.61709e-10 -2.9746e-10 -4.50543e-10 -4.40838e-10 -1.71319e-10 -2.62124e-10 -7.73091 5.47488 -0.417314 -4.40834e-10 -1.71319e-10 -2.62139e-10 -2.90554 0.965183 -0.102902 -4.40838e-10 -1.71319e-10 -2.62135e-10 -10.2786 0.731801 -0.0259123 -4.4083e-10 -1.71317e-10 -2.62144e-10 -2.22167 -0.733487 0.20892 -2.03217e-16 0.0 -3.88251e-19 -0.52644 -6.29732 1.09011 -1.29393 29.3605 0.896078 0.016643 -14.2475 -2.54355 2.03217e-16 0.0 3.88251e-19 -10.036 -8.77897 -1.44919 4.01939 27.8962 -1.52885 1.57211 -11.2206 -1.52916
-30.3329 10.5074 82.6313 81.193 6.0286 -149.007 -6.81496 -22.1499 -1.22646 -1.58683 -3.88451 -2.36766 3.74916 -0.469102 0.229789 -4.55749 15.9947 2.96496 -0.0 0.0 0.0 -0.0 0.0 0.0 4.064e-14 2.34597e-14 -1.52775e-13 -41.5307 -17.4978 23.9308 -8.74996 -4.25731 14.4229 -0.0418606 12.3005 1.72587 -1.62108e-09 2.60828e-09 -1.035e-10 -2.80178e-09 4.53378e-09 -1.46252e-10 -1.62108e-09 2.60828e-09 -1.03523e-10 7.73091 5.47488 0.417314 -1.62108e-09 2.60828e-09 -1.035e-10 2.90554 0.965183 0.102902 -1.62107e-09 2.60828e-09 -1.035e-10 10.2786 0.731801 0.0259123 -1.62109e-09 2.60829e-09 -1.03492e-10 2.22167 -0.733487 -0.20892 4.05445e-14 2.34542e-14 -1.52921e-13 -32.7072 53.0979 -19.4886 28.2961 -29.4877 -34.8718 0.00155084 2.38393 -0.335018 -9.49562e-10 -3.38714e-10 -5.3786e-10 -1.64066e-09 -5.88326e-10 -9.24337e-10 -9.49563e-10 -3.38713e-10 -5.37847e-10 -7.73091 5.47488 -0.417314 -9.49561e-10 -3.38714e-10 -5.37863e-10 -2.90554 0.965183 -0.102902 -9.49567e-10 -3.38713e-10 -5.3786e-10 -10.2786 0.731801 -0.0259123 -9.49558e-10 -3.3871e-10 -5.37867e-10 -2.22167 -0.733487 0.20892 -2.03217e-16 0.0 -3.88251e-19 -1.3054 -9.84267 2.29541 -4.70338 60.6039 3.38678 -1.53697 -32.5388 -6.17353 2.03217e-16 0.0 3.88251e-19 -20.4128 -14.437 -3.09792 11.0942 56.6138 -5.1383 1.93241 -25.9823 -3.31406
-30.3386 10.425 82.6033 81.2182 6.0786 -149.039 -10.254 -32.2888 -1.96188 -2.40652 -5.6588 -3.458 5.46966 -0.686376 0.335647 -7.24671 23.2901 4.52579 -0.0 0.0 0.0 -0.0 0.0 0.0 5.08144e-14 2.96728e-14 -2.15145e-13 -55.5767 -22.9395 36.4704 -12.0512 -5.98224 21.0917 -0.321399 17.9441 2.58697 -2.26184e-09 3.65629e-09 -1.24899e-10 -3.90888e-09 6.35465e-09 -1.70235e-10 -2.26185e-09 3.65629e-09 -1.24925e-10 7.73091 5.47488 0.417314 -2.26184e-09 3.6563e-09 -1.24899e-10 2.90554 0.965183 0.102902 -2.26183e-09 3.65629e-09 -1.24899e-10 10.2786 0.731801 0.0259123 -2.26185e-09 3.6563e-09 -1.24892e-10 2.22167 -0.733487 -0.20892 5.08087e-14 2.96649e-14 -2.15226e-13 -12.5978 70.3676 -59.6588 29.0753 -33.9776 -56.149 0.011579 3.47413 -0.488711 -1.31279e-09 -5.14073e-10 -7.86331e-10 -2.26839e-09 -8.9257e-10 -1.35151e-09 -1.31279e-09 -5.14071e-10 -7.86316e-10 -7.73091 5.47488 -0.417314 -1.31279e-09 -5.14073e-10 -7.86334e-10 -2.90554 0.965183 -0.102902 -1.3128e-09 -5.14071e-10 -7.86331e-10 -10.2786 0.731801 -0.0259123 -1.31279e-09 -5.14068e-10 -7.86337e-10 -2.22167 -0.733487 0.20892 -2.03217e-16 0.0 -3.88251e-19 -1.88318 -12.9919 3.4087 -61.7088 87.1513 59.1877 -5.91427 -48.5329 -11.5537 2.03217e-16 0.0 3.88251e-19 -29.9343 -19.4369 -4.65537 38.3036 81.3645 -28.6758 1.23959 -39.0888 -5.52851
-30.3442 10.3345 82.5634 81.2237 6.1449 -149.084 -12.8379 -39.3355 -2.63108 -3.01532 -6.89652 -4.2189 6.67247 -0.846078 0.411345 -9.3916 28.3492 5.75924 -0.0 0.0 0.0 -0.0 0.0 0.0 2.6588e-14 1.74977e-14 -2.30541e-13 -63.8114 -25.0888 45.7558 -14.1034 -7.0382 25.7624 -0.628378 21.9262 3.24305 -2.34478e-09 3.85059e-09 -4.51861e-11 -4.05064e-09 6.6889e-09 -3.05166e-11 -2.34478e-09 3.85059e-09 -4.52148e-11 7.73091 5.47488 0.417314 -2.34478e-09 3.8506e-09 -4.51861e-11 2.90554 0.965183 0.102902 -2.34477e-09 3.85059e-09 -4.51853e-11 10.2786 0.731801 0.0259123 -2.34478e-09 3.85059e-09 -4.51798e-11 2.22167 -0.733487 -0.20892 2.66384e-14 1.74888e-14 -2.3059e-13 23.7596 68.2388 -108.662 28.1859 -31.8708 -70.2475 0.0219464 4.2253 -0.594917 -1.31228e-09 -7.09343e-10 -9.66669e-10 -2.2681e-09 -1.23026e-09 -1.66213e-09 -1.31228e-09 -7.0934e-10 -9.66653e-10 -7.73091 5.47488 -0.417314 -1.31228e-09 -7.09342e-10 -9.66672e-10 -2.90554 0.965183 -0.102902 -1.31228e-09 -7.0934e-10 -9.6667e-10 -10.2786 0.731801 -0.0259123 -1.31227e-09 -7.09337e-10 -9.66676e-10 -2.22167 -0.733487 0.20892 -2.03217e-16 0.0 -3.88251e-19 -2.24431 -15.1679 4.23299 -173.964 71.8027 170.381 -12.4485 -59.2325 -18.3148 2.03217e-16 0.0 3.88251e-19 -36.6713 -22.8393 -5.78855 166.278 78.562 -153.809 -0.151962 -48.1662 -7.77207
-30.333 10.256 82.5397 81.2526 6.1802 -149.09 -13.8777 -42.0626 -2.96851 -3.25779 -7.38847 -4.50865 7.15043 -0.926001 0.444745 -10.3012 30.3207 6.28456 -0.0 0.0 0.0 -0.0 0.0 0.0 -6.96425e-14 -2.76518e-14 -1.61646e-13 -66.7345 -25.5357 49.4399 -14.8444 -7.40338 27.5732 -0.784906 23.6125 3.53564 -1.43717e-09 2.58815e-09 2.63495e-10 -2.47727e-09 4.4839e-09 4.8538e-10 -1.43717e-09 2.58815e-09 2.63465e-10 7.73091 5.47488 0.417314 -1.43717e-09 2.58815e-09 2.63495e-10 2.90554 0.965183 0.102902 -1.43715e-09 2.58815e-09 2.63497e-10 10.2786 0.731801 0.0259123 -1.43717e-09 2.58815e-09 2.63502e-10 2.22167 -0.733487 -0.20892 -6.95851e-14 -2.76597e-14 -1.6172e-13 31.6348 63.9957 -121.13 28.1187 -29.9706 -74.9795 0.026542 4.50066 -0.63393 -6.21005e-10 -9.92674e-10 -1.11331e-09 -1.07536e-09 -1.71847e-09 -1.91654e-09 -6.2101e-10 -9.9267e-10 -1.11329e-09 -7.73091 5.47488 -0.417314 -6.21003e-10 -9.92672e-10 -1.11331e-09 -2.90554 0.965183 -0.102902 -6.21011e-10 -9.9267e-10 -1.11331e-09 -10.2786 0.731801 -0.0259123 -6.21001e-10 -9.92668e-10 -1.11332e-09 -2.22167 -0.733487 0.20892 -2.03217e-16 0.0 -3.88251e-19 -2.4363 -15.9868 4.61551 -176.658 64.2995 172.605 -16.3936 -63.1992 -22.1179 2.03217e-16 0.0 3.88251e-19 -39.1947 -24.0387 -6.18747 176.091 71.9806 -162.531 -0.987078 -51.7201 -8.85509
